<svg xmlns="http://www.w3.org/2000/svg" width="1536" height="1024" viewBox="0 0 1536 1024">
  <defs>
    <linearGradient id="bg" x1="0" y1="0" x2="0" y2="1">
      <stop offset="0%" stop-color="#f7fbff"/>
      <stop offset="100%" stop-color="#eef6ff"/>
    </linearGradient>
    <filter id="shadow" x="-20%" y="-20%" width="140%" height="140%">
      <feDropShadow dx="0" dy="8" stdDeviation="14" flood-color="#d7e4f2" flood-opacity="0.55"/>
    </filter>
    <style>
      .title{font:700 42px Arial,'Microsoft YaHei',sans-serif;fill:#0b1f44}.h2{font:700 22px Arial,'Microsoft YaHei',sans-serif;fill:#0b1f44}.text{font:16px Arial,'Microsoft YaHei',sans-serif;fill:#51637f}.nav{font:700 17px Arial,'Microsoft YaHei',sans-serif;fill:#071b3a}.q{font:700 20px Arial,'Microsoft YaHei',sans-serif;fill:#071b3a}.small{font:15px Arial,'Microsoft YaHei',sans-serif;fill:#51637f}.blue{fill:#1477f8}.card{fill:#fff;stroke:#e4edf8;stroke-width:1;filter:url(#shadow)}.tag{fill:#fff;stroke:#d9e6f6;stroke-width:1}.line{stroke:#e8eef6;stroke-width:1}.rank{font:700 14px Arial,'Microsoft YaHei',sans-serif;fill:#fff}.placeholder{font:16px Arial,'Microsoft YaHei',sans-serif;fill:#9aabc2}
    </style>
  </defs>
  <rect width="1536" height="1024" fill="url(#bg)"/>
  <rect x="0" y="0" width="1536" height="68" fill="#fff"/>
  <line x1="0" y1="68" x2="1536" y2="68" stroke="#e5edf6"/>
  <circle cx="48" cy="34" r="18" fill="#1477f8"/><text x="80" y="41" class="h2">商品信息平台</text>
  <text x="480" y="39" class="nav">首页</text><text x="556" y="39" class="nav">产品</text><text x="632" y="39" class="nav">分类</text><text x="708" y="39" class="nav">资料</text><text x="784" y="39" class="nav">报价</text><text x="864" y="39" class="nav">公司库</text><text x="936" y="39" class="nav" fill="#1477f8">资讯</text><rect x="930" y="66" width="50" height="3" rx="1.5" fill="#1477f8"/>
  <rect x="1150" y="16" width="220" height="38" rx="8" fill="#fff" stroke="#d9e6f6"/><text x="1180" y="40" class="placeholder">搜索产品、分类、公司</text><circle cx="1408" cy="34" r="18" fill="#bcd8ff"/><text x="1435" y="40" class="nav">admin⌄</text>
  <text x="34" y="108" class="small">首页  ›  问答中心</text>
  <text x="34" y="187" class="title">问答中心</text>
  <text x="34" y="228" class="text">为您整理系统使用过程中的常见问题，帮助您快速找到解决方案。</text>
  <rect x="34" y="267" width="962" height="50" rx="10" fill="#fff" stroke="#dbe8f7"/><text x="96" y="299" class="placeholder">请输入关键词搜索问题</text><rect x="882" y="267" width="114" height="50" rx="10" class="blue"/><text x="934" y="299" font-family="Arial,'Microsoft YaHei'" font-size="17" font-weight="700" fill="#fff">搜索</text>
  <g opacity=".7"><circle cx="1282" cy="195" r="60" fill="#1477f8"/><text x="1258" y="224" font-size="90" font-weight="700" fill="#fff">?</text><rect x="1160" y="145" width="90" height="70" rx="14" fill="#8dc0ff" opacity=".65"/><rect x="1335" y="192" width="75" height="58" rx="12" fill="#8dc0ff" opacity=".65"/></g>
  <g transform="translate(34 350)"><rect width="92" height="47" rx="9" fill="#fff" stroke="#1477f8"/><text x="31" y="30" class="nav" fill="#1477f8">全部</text><rect x="108" width="116" height="47" rx="9" class="tag"/><text x="136" y="30" class="nav">功能使用</text><rect x="236" width="116" height="47" rx="9" class="tag"/><text x="265" y="30" class="nav">账号权限</text><rect x="364" width="116" height="47" rx="9" class="tag"/><text x="393" y="30" class="nav">产品信息</text><rect x="492" width="116" height="47" rx="9" class="tag"/><text x="521" y="30" class="nav">数据维护</text><rect x="620" width="116" height="47" rx="9" class="tag"/><text x="649" y="30" class="nav">常见异常</text></g>
  <rect x="34" y="412" width="1024" height="576" rx="12" class="card"/>
  <g transform="translate(66 434)"><circle cx="14" cy="14" r="14" class="blue"/><text x="10" y="19" font-size="14" font-weight="700" fill="#fff">Q</text><text x="48" y="22" class="q">如何查看产品详情？</text><text x="948" y="20" class="q">⌃</text><rect x="0" y="48" width="964" height="58" rx="8" fill="#f2f7ff"/><circle cx="50" cy="77" r="13" fill="#e7f1ff" stroke="#1477f8"/><text x="46" y="82" font-size="14" fill="#1477f8">A</text><text x="94" y="82" class="small">点击产品列表中的产品名称，即可进入详情页面查看产品基础信息、图片、说明等内容。</text></g>
  <g transform="translate(66 565)"><line x1="-32" y1="-15" x2="992" y2="-15" class="line"/><circle cx="14" cy="14" r="14" class="blue"/><text x="10" y="19" font-size="14" font-weight="700" fill="#fff">Q</text><text x="48" y="22" class="q">如何修改产品信息？</text><text x="948" y="20" class="q">⌄</text></g>
  <g transform="translate(66 626)"><line x1="-32" y1="-15" x2="992" y2="-15" class="line"/><circle cx="14" cy="14" r="14" class="blue"/><text x="10" y="19" font-size="14" font-weight="700" fill="#fff">Q</text><text x="48" y="22" class="q">如何新增产品信息？</text><text x="948" y="20" class="q">⌄</text></g>
  <g transform="translate(66 687)"><line x1="-32" y1="-15" x2="992" y2="-15" class="line"/><circle cx="14" cy="14" r="14" class="blue"/><text x="10" y="19" font-size="14" font-weight="700" fill="#fff">Q</text><text x="48" y="22" class="q">为什么搜索不到产品？</text><text x="948" y="20" class="q">⌄</text></g>
  <g transform="translate(66 748)"><line x1="-32" y1="-15" x2="992" y2="-15" class="line"/><circle cx="14" cy="14" r="14" class="blue"/><text x="10" y="19" font-size="14" font-weight="700" fill="#fff">Q</text><text x="48" y="22" class="q">数据保存失败怎么办？</text><text x="948" y="20" class="q">⌄</text></g>
  <text x="586" y="961" class="small">共 24 条</text><rect x="710" y="934" width="38" height="38" rx="6" fill="#fff" stroke="#1477f8"/><text x="724" y="958" class="nav" fill="#1477f8">1</text><rect x="760" y="934" width="38" height="38" rx="6" fill="#fff" stroke="#d9e6f6"/><text x="774" y="958" class="nav">2</text><rect x="810" y="934" width="38" height="38" rx="6" fill="#fff" stroke="#d9e6f6"/><text x="824" y="958" class="nav">3</text>
  <rect x="1088" y="356" width="414" height="346" rx="12" class="card"/><text x="1155" y="394" class="h2">热门问题</text><text x="1120" y="394" font-size="22" fill="#ff5b3f">●</text><g transform="translate(1118 436)"><rect width="20" height="20" rx="4" fill="#ff5b3f"/><text x="7" y="15" class="rank">1</text><text x="38" y="18" class="small" fill="#0b1f44">如何查看产品详情？</text></g><g transform="translate(1118 479)"><rect width="20" height="20" rx="4" fill="#ff8b3d"/><text x="7" y="15" class="rank">2</text><text x="38" y="18" class="small" fill="#0b1f44">如何新增产品信息？</text></g><g transform="translate(1118 522)"><rect width="20" height="20" rx="4" fill="#f8aa11"/><text x="7" y="15" class="rank">3</text><text x="38" y="18" class="small" fill="#0b1f44">数据保存失败怎么办？</text></g><g transform="translate(1118 565)"><rect width="20" height="20" rx="4" fill="#eef2f7"/><text x="7" y="15" font-size="14" font-weight="700" fill="#3c4b66">4</text><text x="38" y="18" class="small" fill="#0b1f44">如何导出产品数据？</text></g><g transform="translate(1118 608)"><rect width="20" height="20" rx="4" fill="#eef2f7"/><text x="7" y="15" font-size="14" font-weight="700" fill="#3c4b66">5</text><text x="38" y="18" class="small" fill="#0b1f44">为什么搜索不到产品？</text></g><text x="1244" y="661" font-size="16" font-weight="700" fill="#1477f8">查看全部 ›</text>
  <rect x="1088" y="722" width="414" height="256" rx="12" class="card"/><circle cx="1138" cy="770" r="28" fill="#eaf3ff"/><text x="1125" y="781" font-size="32" fill="#1477f8">☎</text><text x="1180" y="777" class="h2">仍未解决？</text><text x="1118" y="827" class="text">如果没有找到您需要的答案，</text><text x="1118" y="861" class="text">请联系管理员为您处理。</text><rect x="1118" y="889" width="162" height="52" rx="8" class="blue"/><text x="1160" y="922" font-size="17" font-weight="700" fill="#fff">联系管理员</text>
</svg>
